<svg id="Layer_1" data-name="Layer 1" xmlns="http://www.w3.org/2000/svg" xmlns:xlink="http://www.w3.org/1999/xlink" viewBox="0 0 45 45"><defs><style>.cls-1,.cls-10,.cls-11,.cls-12,.cls-13,.cls-14,.cls-3,.cls-4,.cls-9{fill:none;stroke-miterlimit:10;stroke-width:1.48px;}.cls-1,.cls-3{stroke:#fff;}.cls-2{fill:#fff;}.cls-10,.cls-11,.cls-3,.cls-9{stroke-linecap:round;}.cls-4{stroke:url(#CryptoPiggyGradient);}.cls-5{fill:url(#CryptoPiggyGradient-2);}.cls-6{fill:url(#CryptoPiggyGradient-3);}.cls-7{fill:url(#CryptoPiggyGradient-4);}.cls-8{fill:url(#CryptoPiggyGradient-5);}.cls-9{stroke:url(#CryptoPiggyGradient-6);}.cls-10{stroke:url(#CryptoPiggyGradient-7);}.cls-11{stroke:url(#CryptoPiggyGradient-8);}.cls-12{stroke:url(#CryptoPiggyGradient-9);}.cls-13{stroke:url(#CryptoPiggyGradient-10);}.cls-14{stroke:url(#CryptoPiggyGradient-11);}</style><linearGradient id="CryptoPiggyGradient" x1="15.97" y1="31.89" x2="29.05" y2="31.89" gradientUnits="userSpaceOnUse"><stop offset="0" stop-color="#4e4476"/><stop offset="1" stop-color="#2b5876"/></linearGradient><linearGradient id="CryptoPiggyGradient-2" x1="19.84" y1="31.89" x2="21.25" y2="31.89" xlink:href="#CryptoPiggyGradient"/><linearGradient id="CryptoPiggyGradient-3" x1="23.77" y1="31.89" x2="25.18" y2="31.89" xlink:href="#CryptoPiggyGradient"/><linearGradient id="CryptoPiggyGradient-4" x1="17.45" y1="23.14" x2="19.23" y2="23.14" xlink:href="#CryptoPiggyGradient"/><linearGradient id="CryptoPiggyGradient-5" x1="25.76" y1="23.14" x2="27.54" y2="23.14" xlink:href="#CryptoPiggyGradient"/><linearGradient id="CryptoPiggyGradient-6" x1="21.76" y1="3.46" x2="23.24" y2="3.46" xlink:href="#CryptoPiggyGradient"/><linearGradient id="CryptoPiggyGradient-7" x1="11.89" y1="6.61" x2="15.31" y2="6.61" xlink:href="#CryptoPiggyGradient"/><linearGradient id="CryptoPiggyGradient-8" x1="29.69" y1="6.61" x2="33.1" y2="6.61" xlink:href="#CryptoPiggyGradient"/><linearGradient id="CryptoPiggyGradient-9" x1="8.33" y1="28.25" x2="36.67" y2="28.25" xlink:href="#CryptoPiggyGradient"/><linearGradient id="CryptoPiggyGradient-10" x1="21.23" y1="10.5" x2="26.99" y2="10.5" xlink:href="#CryptoPiggyGradient"/><linearGradient id="CryptoPiggyGradient-11" x1="18" y1="13.46" x2="24.88" y2="13.46" xlink:href="#CryptoPiggyGradient"/></defs><title>CP_Logo_Gradient_M</title><circle class="cls-1" cx="22.51" cy="31.89" r="5.8"/><ellipse class="cls-2" cx="20.54" cy="31.89" rx="0.71" ry="2.44"/><ellipse class="cls-2" cx="24.48" cy="31.89" rx="0.71" ry="2.44"/><circle class="cls-2" cx="18.34" cy="23.14" r="0.89"/><circle class="cls-2" cx="26.65" cy="23.14" r="0.89"/><line class="cls-3" x1="22.5" y1="1.22" x2="22.5" y2="5.7"/><line class="cls-3" x1="12.63" y1="5.43" x2="14.57" y2="7.8"/><line class="cls-3" x1="32.36" y1="5.43" x2="30.43" y2="7.8"/><path class="cls-1" d="M35.93,28.94a13.41,13.41,0,0,0-2.84-8.23l1.09-.36a1.15,1.15,0,0,0,.78-.94l.69-5.24A1.21,1.21,0,0,0,34,12.91L28.7,15.16a1.2,1.2,0,0,0-.65,1.56,13.31,13.31,0,0,0-11.07,0A1.19,1.19,0,0,0,16.42,15l-5.27-2.25A1.21,1.21,0,0,0,9.47,14l.61,5.06a1.16,1.16,0,0,0,.66.9l1.25.55a15,15,0,0,0-2.92,8.4,13.38,13.38,0,0,0,2.59,7.92c.48,5.3,1.79,7,3.35,7,1,0,2,.42,2.64-2.35a13.33,13.33,0,0,0,9.68,0c.65,2.77,1.59,2.35,2.64,2.35,1.55,0,2.86-1.63,3.34-6.92A14.07,14.07,0,0,0,35.93,28.94Z"/><path class="cls-1" d="M24.11,8.36A2.14,2.14,0,0,0,22,10.5a2.2,2.2,0,0,0,.11.64,2.71,2.71,0,0,1,1.8,1.48l.23,0a2.14,2.14,0,0,0,0-4.28Z"/><path class="cls-1" d="M19.7,15.79a13.38,13.38,0,0,1,2.85-.31c.31,0,.6,0,.9,0a2.67,2.67,0,0,0,.69-1.78,2.7,2.7,0,1,0-4.44,2Z"/><rect class="cls-2" width="45" height="45"/><circle class="cls-4" cx="22.51" cy="31.89" r="5.8"/><ellipse class="cls-5" cx="20.54" cy="31.89" rx="0.71" ry="2.44"/><ellipse class="cls-6" cx="24.48" cy="31.89" rx="0.71" ry="2.44"/><circle class="cls-7" cx="18.34" cy="23.14" r="0.89"/><circle class="cls-8" cx="26.65" cy="23.14" r="0.89"/><line class="cls-9" x1="22.5" y1="1.22" x2="22.5" y2="5.7"/><line class="cls-10" x1="12.63" y1="5.43" x2="14.57" y2="7.8"/><line class="cls-11" x1="32.36" y1="5.43" x2="30.43" y2="7.8"/><path class="cls-12" d="M35.93,28.94a13.41,13.41,0,0,0-2.84-8.23l1.09-.36a1.15,1.15,0,0,0,.78-.94l.69-5.24A1.21,1.21,0,0,0,34,12.91L28.7,15.16a1.2,1.2,0,0,0-.65,1.56,13.31,13.31,0,0,0-11.07,0A1.19,1.19,0,0,0,16.42,15l-5.27-2.25A1.21,1.21,0,0,0,9.47,14l.61,5.06a1.16,1.16,0,0,0,.66.9l1.25.55a15,15,0,0,0-2.92,8.4,13.38,13.38,0,0,0,2.59,7.92c.48,5.3,1.79,7,3.35,7,1,0,2,.42,2.64-2.35a13.33,13.33,0,0,0,9.68,0c.65,2.77,1.59,2.35,2.64,2.35,1.55,0,2.86-1.63,3.34-6.92A14.07,14.07,0,0,0,35.93,28.94Z"/><path class="cls-13" d="M24.11,8.36A2.14,2.14,0,0,0,22,10.5a2.2,2.2,0,0,0,.11.64,2.71,2.71,0,0,1,1.8,1.48l.23,0a2.14,2.14,0,0,0,0-4.28Z"/><path class="cls-14" d="M19.7,15.79a13.38,13.38,0,0,1,2.85-.31c.31,0,.6,0,.9,0a2.67,2.67,0,0,0,.69-1.78,2.7,2.7,0,1,0-4.44,2Z"/></svg>